<?xml version="1.0" encoding="UTF-8"?>
<!DOCTYPE svg PUBLIC "-//W3C//DTD SVG 1.1//EN" "http://www.w3.org/Graphics/SVG/1.1/DTD/svg11.dtd">
<svg version="1.1" xmlns="http://www.w3.org/2000/svg" xmlns:xlink="http://www.w3.org/1999/xlink" x="0" y="0" width="47.5" height="35.5" viewBox="0, 0, 95, 71">
  <g id="Background">
    <rect x="0" y="0" width="95" height="71" fill="#000000" fill-opacity="0"/>
  </g>
  <g id="Layer_1">
    <path d="M13.752,39.047 z" fill="#C6C6C6"/>
    <path d="M14.752,40.047 z" fill="#C6C6C6"/>
    <path d="M55.055,-0.027 L95.05,71.146 L15.061,71.146 L20.974,60.623 L55.603,60.623 L55.603,56.89 L23.072,56.89 L29.235,45.921 L55.603,45.921 L55.603,42.188 L31.333,42.188 L37.497,31.219 L55.603,31.219 L55.603,27.486 L39.595,27.486 L45.758,16.517 L55.603,16.517 L55.603,12.784 L47.856,12.784 L55.055,-0.027 z M76.132,57.372 L74.173,59.323 L74.542,59.665 Q74.921,60.016 75.282,60.418 Q75.643,60.82 75.924,61.264 Q76.206,61.708 76.377,62.193 Q76.548,62.678 76.548,63.196 Q76.548,63.51 76.488,63.774 Q76.428,64.037 76.29,64.241 Q76.151,64.444 75.934,64.564 Q75.716,64.684 75.402,64.703 L75.402,66.958 Q76.225,66.931 76.95,66.644 Q77.676,66.358 78.217,65.854 Q78.758,65.35 79.072,64.647 Q79.386,63.945 79.386,63.076 Q79.386,62.179 79.155,61.43 Q78.924,60.682 78.531,60.035 Q78.138,59.387 77.607,58.81 Q77.075,58.232 76.474,57.677 L76.132,57.372 z M73.636,61.486 L70.706,62.077 Q70.771,62.993 71.043,63.843 Q71.316,64.694 71.834,65.368 Q72.352,66.043 73.119,66.468 Q73.886,66.894 74.94,66.949 L74.94,64.657 Q74.552,64.555 74.307,64.241 Q74.062,63.926 73.918,63.487 Q73.775,63.048 73.715,62.526 Q73.655,62.004 73.636,61.486 z M69.44,60.118 L66.583,60.118 L66.583,61.689 Q66.583,62.198 66.532,62.701 Q66.482,63.205 66.338,63.621 Q66.195,64.037 65.927,64.315 Q65.659,64.592 65.215,64.657 L65.215,66.94 Q66.445,66.894 67.253,66.422 Q68.062,65.951 68.543,65.188 Q69.024,64.426 69.222,63.441 Q69.421,62.457 69.44,61.384 L69.44,60.118 z M64.753,49.857 Q63.486,49.903 62.636,50.356 Q61.786,50.809 61.272,51.571 Q60.759,52.334 60.547,53.351 Q60.334,54.368 60.334,55.523 L60.334,61.292 Q60.334,62.429 60.547,63.436 Q60.759,64.444 61.272,65.207 Q61.786,65.969 62.631,66.436 Q63.477,66.903 64.753,66.94 L64.753,64.666 Q64.281,64.61 63.99,64.356 Q63.699,64.102 63.533,63.723 Q63.366,63.344 63.311,62.896 Q63.255,62.447 63.255,62.004 L63.255,54.802 Q63.255,54.359 63.311,53.91 Q63.366,53.462 63.533,53.083 Q63.699,52.704 63.99,52.45 Q64.281,52.195 64.753,52.14 L64.753,49.857 z M74.82,49.857 Q73.905,49.912 73.151,50.222 Q72.398,50.532 71.857,51.068 Q71.316,51.604 71.02,52.348 Q70.725,53.092 70.725,54.017 Q70.725,54.812 70.933,55.445 Q71.141,56.078 71.487,56.596 Q71.834,57.113 72.273,57.548 Q72.712,57.982 73.174,58.389 L73.84,59.018 L75.809,57.049 Q75.569,56.827 75.347,56.619 Q75.125,56.411 74.995,56.291 Q74.7,56.032 74.445,55.75 Q74.191,55.468 74.002,55.154 Q73.812,54.839 73.706,54.479 Q73.6,54.118 73.599,53.702 Q73.6,53.397 73.673,53.12 Q73.747,52.843 73.9,52.63 Q74.053,52.417 74.284,52.274 Q74.515,52.131 74.82,52.103 L74.82,49.857 z M65.215,49.857 L65.215,52.149 Q65.659,52.214 65.927,52.496 Q66.195,52.778 66.338,53.194 Q66.482,53.61 66.528,54.109 Q66.574,54.608 66.574,55.098 L66.574,56.503 L69.44,56.503 L69.44,55.246 Q69.44,54.118 69.222,53.148 Q69.005,52.177 68.506,51.461 Q68.007,50.744 67.198,50.324 Q66.389,49.903 65.215,49.857 z M75.282,49.847 L75.282,52.131 Q75.578,52.214 75.781,52.427 Q75.985,52.639 76.109,52.926 Q76.234,53.212 76.299,53.545 Q76.364,53.878 76.382,54.192 Q76.382,54.34 76.373,54.479 Q76.364,54.617 76.363,54.747 L79.331,54.285 L79.331,53.943 Q79.294,53.083 78.975,52.339 Q78.656,51.595 78.12,51.049 Q77.584,50.504 76.858,50.185 Q76.132,49.866 75.282,49.847 z" fill="#E8703C"/>
    <path d="M39.055,-0.027 L50.062,-0.027 L11.007,71.146 L0,71.146 L39.055,-0.027 z" fill="#E8703B"/>
    <path d="M11.144,57.093 Q11.107,57.16 10.963,57.445 Q10.819,57.73 10.654,58.054 Q10.477,58.446 10.243,58.894 Q10.291,58.945 10.498,59.059 Q10.705,59.173 10.946,59.305 L11.573,59.649 Q11.631,59.543 11.654,59.455 Q11.698,59.354 11.743,59.272 Q11.788,59.19 11.79,59.116 Q11.817,59.068 11.887,58.974 Q11.957,58.881 12.032,58.778 Q12.108,58.675 12.168,58.564 Q12.229,58.453 12.256,58.405 Q12.289,58.298 12.317,58.1 Q12.344,57.901 12.421,57.806 Q12.517,57.746 12.629,57.644 Q12.742,57.542 12.919,57.677 Q13.097,57.787 13.191,57.889 Q13.286,57.991 13.194,58.205 Q13.132,58.409 13.076,58.454 Q13.02,58.498 12.939,58.554 Q12.888,58.601 12.812,58.741 Q12.735,58.881 12.645,59.045 Q12.555,59.209 12.485,59.359 Q12.415,59.509 12.4,59.538 Q12.396,59.636 12.309,59.726 Q12.222,59.817 12.243,59.891 Q12.232,59.935 12.356,60.029 Q12.481,60.122 12.632,60.224 Q12.783,60.325 12.945,60.408 Q13.107,60.49 13.137,60.482 Q13.254,60.496 13.348,60.541 Q13.443,60.587 13.472,60.603 Q13.51,60.624 13.61,60.729 Q13.709,60.833 13.785,60.787 Q13.865,60.756 13.908,60.573 Q13.952,60.39 13.995,60.313 Q14.026,60.255 14.151,60.072 Q14.277,59.89 14.432,59.675 Q14.588,59.459 14.721,59.262 Q14.854,59.065 14.868,58.972 Q14.939,58.798 14.986,58.46 Q15.033,58.122 15.135,58.028 Q15.238,57.908 15.445,57.978 Q15.651,58.047 15.767,58.111 Q15.872,58.193 15.892,58.399 Q15.911,58.604 15.863,58.69 Q15.831,58.748 15.764,58.837 Q15.697,58.925 15.601,59.042 Q15.506,59.159 15.411,59.264 Q15.316,59.369 15.289,59.417 Q15.268,59.455 15.112,59.74 Q14.956,60.024 14.773,60.357 Q14.591,60.69 14.435,60.962 Q14.279,61.234 14.253,61.282 Q14.166,61.373 14.003,61.371 Q13.841,61.37 13.793,61.344 Q13.783,61.338 13.575,61.249 Q13.367,61.16 13.117,61.054 Q12.868,60.949 12.638,60.842 Q12.408,60.735 12.331,60.692 Q12.157,60.597 11.981,60.45 Q11.804,60.303 11.738,60.241 Q11.7,60.196 11.56,60.131 Q11.419,60.067 11.257,59.996 Q11.095,59.926 10.916,59.853 Q10.736,59.78 10.63,59.721 Q10.524,59.663 10.341,59.55 Q10.159,59.438 9.964,59.3 Q9.77,59.162 9.63,59.029 Q9.49,58.895 9.479,58.801 Q9.487,58.718 9.588,58.51 Q9.69,58.302 9.832,58.066 Q9.974,57.831 10.097,57.629 Q10.221,57.427 10.258,57.359 Q10.295,57.292 10.356,57.156 Q10.418,57.021 10.468,56.885 Q10.517,56.749 10.561,56.622 Q10.606,56.496 10.608,56.422 Q10.602,56.319 10.652,56.17 Q10.702,56.022 10.778,55.976 Q10.869,55.901 11.078,55.909 Q11.287,55.917 11.383,55.994 Q11.469,56.066 11.536,56.184 Q11.602,56.303 11.522,56.472 Q11.472,56.632 11.34,56.805 Q11.207,56.977 11.144,57.093 z M11.051,57.857 Q10.985,58.046 10.939,58.197 Q10.914,58.334 10.869,58.441 Q10.823,58.547 10.836,58.592 Q10.833,58.666 10.988,58.738 Q11.142,58.811 11.323,58.847 Q11.43,58.881 11.51,58.78 Q11.591,58.68 11.671,58.58 Q11.751,58.479 11.796,58.397 Q11.841,58.315 11.835,58.325 Q11.824,58.369 11.747,58.509 Q11.67,58.649 11.599,58.848 Q11.503,59.046 11.36,59.306 Q11.327,59.275 11.294,59.22 Q11.261,59.189 11.126,59.115 L10.798,58.935 Q10.682,58.872 10.548,58.773 z M12.122,57.78 Q12.158,57.737 12.234,57.69 Q12.315,57.634 12.453,57.61 z M12.743,59.689 Q12.742,59.713 12.758,59.628 Q12.774,59.542 12.823,59.406 Q12.873,59.27 12.924,59.142 Q12.976,59.013 13.041,58.986 Q13.046,58.977 13.001,59.071 Q12.955,59.165 12.903,59.306 Q12.851,59.447 12.8,59.563 Q12.749,59.679 12.743,59.689 z M12.495,59.866 Q12.613,59.881 12.725,59.905 Q12.853,59.924 12.991,59.981 Q13.129,60.038 13.318,60.105 Q13.488,60.185 13.538,60.207 Q13.589,60.228 13.61,60.19 Q13.621,60.17 13.584,60.1 L13.506,60.333 Q13.27,60.216 13.047,60.119 Q12.853,60.038 12.698,59.965 Q12.544,59.893 12.495,59.866 z M15.272,51.077 Q15.28,51.131 15.259,51.17 Q15.201,51.276 15.096,51.306 Q14.966,51.36 14.894,51.308 Q14.823,51.256 14.724,51.253 Q14.601,51.248 14.385,51.299 Q14.169,51.35 14.028,51.448 Q13.877,51.516 13.74,51.811 Q13.604,52.106 13.552,52.291 Q13.514,52.383 13.503,52.553 Q13.492,52.722 13.505,52.892 Q13.518,53.063 13.557,53.209 Q13.595,53.356 13.701,53.414 Q13.904,53.525 14.139,53.441 Q14.373,53.356 14.424,53.309 Q14.496,53.223 14.486,53.242 Q14.475,53.262 14.648,53.13 Q14.824,53.014 15.003,52.78 Q15.182,52.545 15.304,52.437 Q15.457,52.295 15.547,52.131 Q15.609,52.064 15.648,51.948 Q15.633,51.952 15.623,51.947 Q15.565,51.915 15.542,51.889 Q15.544,51.84 15.657,51.783 Q15.769,51.726 15.979,51.665 Q16.177,51.623 16.528,51.577 Q16.88,51.532 17.252,51.699 Q17.621,51.851 17.845,52.218 Q18.07,52.586 18.154,52.959 Q18.186,53.152 18.147,53.419 Q18.107,53.686 17.991,53.954 Q17.875,54.223 17.703,54.48 Q17.53,54.737 17.308,54.891 Q17.09,55.06 16.84,55.149 Q16.591,55.238 16.316,55.269 Q16.042,55.3 15.807,55.259 Q15.572,55.218 15.428,55.139 Q15.273,55.054 15.24,54.955 Q15.207,54.855 15.2,54.776 Q15.219,54.673 15.295,54.602 Q15.286,54.597 15.261,54.596 Q15.202,54.614 15.164,54.568 Q15.096,54.531 15.111,54.413 Q15.128,54.36 15.129,54.31 Q15.149,54.321 15.182,54.352 Q15.219,54.422 15.286,54.459 Q15.358,54.511 15.422,54.509 Q15.486,54.506 15.542,54.474 Q15.591,54.476 15.622,54.43 Q15.653,54.385 15.771,54.399 Q15.869,54.403 15.893,54.485 Q15.917,54.567 15.994,54.609 Q16.081,54.657 16.173,54.638 Q16.265,54.62 16.503,54.575 Q16.622,54.54 16.726,54.522 Q16.83,54.503 16.921,54.44 Q17.012,54.377 17.116,54.246 Q17.219,54.115 17.346,53.883 Q17.605,53.411 17.532,53.019 Q17.458,52.627 17.331,52.47 Q17.215,52.293 16.903,52.21 Q16.591,52.126 16.371,52.207 Q16.256,52.256 16.103,52.41 Q15.949,52.565 15.781,52.767 Q15.614,52.97 15.461,53.169 Q15.308,53.367 15.2,53.496 Q15.087,53.61 14.944,53.757 Q14.8,53.904 14.581,53.972 Q14.362,54.04 14.072,54.019 Q13.783,53.998 13.387,53.781 Q13.021,53.58 12.889,53.213 Q12.758,52.847 12.79,52.456 Q12.822,52.066 12.972,51.703 Q13.121,51.339 13.271,51.158 Q13.436,50.948 13.657,50.843 Q13.877,50.738 14.101,50.673 Q14.325,50.607 14.526,50.585 Q14.726,50.564 14.814,50.587 Q15.034,50.62 15.163,50.784 Q15.292,50.949 15.272,51.077 z M15.045,51.994 Q14.967,52.114 14.888,52.258 Q14.824,52.374 14.766,52.48 Q14.708,52.586 14.667,52.614 Q14.636,52.672 14.57,52.78 Q14.504,52.889 14.417,52.991 Q14.329,53.094 14.22,53.166 Q14.112,53.238 13.985,53.218 Q13.764,53.185 13.704,52.952 Q13.644,52.718 13.719,52.558 Q13.756,52.491 13.819,52.387 Q13.882,52.284 13.934,52.212 Q14.022,52.122 14.084,52.031 L13.872,52.416 Q13.793,52.561 13.816,52.737 Q13.839,52.912 14.021,52.9 Q14.085,52.897 14.199,52.815 Q14.313,52.734 14.419,52.61 Q14.525,52.486 14.612,52.383 Q14.7,52.281 14.716,52.252 Q14.803,52.161 14.909,52.082 z M15.467,51.02 Q15.459,50.966 15.468,50.914 Q15.477,50.863 15.463,50.729 Q15.446,50.645 15.349,50.56 Q15.251,50.475 15.129,50.446 Q15.003,50.402 14.837,50.361 L14.739,50.357 L14.632,50.324 Q14.603,50.308 14.529,50.305 Q14.45,50.312 14.364,50.308 Q14.278,50.305 14.125,50.309 Q13.971,50.338 13.75,50.467 Q13.528,50.597 13.31,50.766 Q13.081,50.978 12.81,51.219 Q12.825,51.215 12.852,51.166 L12.942,51.003 Q12.984,50.925 13.263,50.702 Q13.543,50.479 13.709,50.382 Q13.855,50.299 14.152,50.249 Q14.449,50.199 14.477,50.239 Q14.505,50.279 14.565,50.262 Q14.614,50.264 14.629,50.26 L14.705,50.213 Q14.776,50.152 14.805,50.168 Q14.805,50.168 14.827,50.242 Q14.83,50.282 14.82,50.301 Q14.936,50.34 15.039,50.359 Q15.141,50.402 15.235,50.448 Q15.329,50.493 15.377,50.519 Q15.512,50.594 15.567,50.768 Q15.622,50.942 15.645,50.992 Q15.662,51.052 15.587,51.086 Q15.512,51.12 15.444,51.083 z M15.862,51.375 Q15.859,51.311 16.011,51.275 Q16.162,51.239 16.355,51.207 Q16.549,51.175 16.76,51.178 Q16.972,51.181 17.088,51.22 Q17.22,51.254 17.434,51.39 Q17.648,51.527 17.874,51.732 Q18.1,51.938 18.281,52.225 Q18.462,52.513 18.508,52.864 Q18.548,53.225 18.458,53.571 Q18.369,53.917 18.245,54.188 Q18.122,54.459 17.992,54.639 Q17.862,54.818 17.857,54.828 Q17.807,54.851 17.929,54.661 Q18.052,54.471 18.153,54.288 Q18.253,54.105 18.311,53.76 Q18.368,53.415 18.367,53.075 Q18.35,52.74 18.257,52.406 Q18.164,52.073 17.677,51.656 Q17.443,51.465 17.159,51.378 Q16.874,51.29 16.643,51.277 Q16.378,51.257 16.091,51.3 L15.965,51.369 Q15.849,51.443 15.862,51.375 z M15.492,53.832 Q15.522,53.823 15.581,53.762 Q15.64,53.7 15.687,53.638 Q15.762,53.591 15.829,53.515 L15.723,53.708 Q15.681,53.785 15.64,53.838 Q15.598,53.89 15.572,53.938 Q15.561,53.958 15.532,54.011 Q15.503,54.064 15.472,54.097 Q15.406,54.149 15.376,54.182 Q15.401,54.158 15.469,54.171 Q15.588,54.161 15.686,54.164 Q15.799,54.188 15.994,54.22 Q16.19,54.252 16.255,54.225 Q16.325,54.189 16.404,54.125 Q16.483,54.062 16.53,54 Q16.56,53.966 16.597,53.899 Q16.634,53.831 16.671,53.764 Q16.714,53.687 16.79,53.616 L16.632,53.905 Q16.568,54.021 16.491,54.116 Q16.413,54.212 16.303,54.252 Q16.114,54.299 15.764,54.251 Q15.414,54.203 15.3,54.228 Q15.206,54.24 15.123,54.276 Q15.041,54.312 15.062,54.273 Q15.088,54.225 15.259,54.074 Q15.43,53.923 15.492,53.832 z M16.41,45.528 Q16.452,45.45 16.5,45.364 Q16.547,45.277 16.569,45.214 Q16.587,45.136 16.62,45.053 Q16.673,44.957 16.757,44.802 Q16.842,44.648 16.851,44.54 Q16.868,44.487 16.865,44.366 Q16.862,44.245 16.904,44.124 Q16.945,44.002 17.047,43.92 Q17.148,43.838 17.314,43.878 Q17.715,43.948 17.828,44.085 Q17.941,44.222 17.885,44.417 Q17.819,44.582 17.815,44.636 Q17.81,44.69 17.695,44.74 Q17.57,44.784 17.521,44.92 Q17.471,45.056 17.428,45.158 Q17.424,45.256 17.429,45.271 Q17.433,45.286 17.364,45.411 Q17.301,45.527 17.251,45.55 Q17.2,45.573 17.138,45.664 Q17.117,45.702 17.108,45.729 Q17.1,45.756 17.079,45.794 L17.047,45.852 L20.422,47.704 L20.739,47.79 Q20.857,47.804 20.949,47.83 Q21.042,47.856 21.059,47.915 Q21.091,47.995 21.087,48.15 Q21.084,48.305 21.022,48.372 Q20.951,48.433 20.717,48.424 Q20.484,48.415 20.086,48.134 Q19.894,48.004 19.473,47.742 Q19.053,47.479 18.634,47.225 Q18.215,46.97 17.854,46.759 Q17.493,46.549 17.396,46.52 Q17.298,46.492 17.172,46.435 Q17.047,46.379 16.922,46.342 Q16.798,46.305 16.705,46.304 Q16.611,46.303 16.574,46.371 Q16.479,46.544 16.509,46.605 Q16.539,46.665 16.535,46.763 Q16.534,46.788 16.481,46.884 Q16.428,46.981 16.362,47.089 Q16.297,47.197 16.239,47.291 Q16.181,47.385 16.136,47.398 Q16.081,47.43 15.857,47.495 Q15.633,47.561 15.517,47.497 Q15.416,47.429 15.379,47.371 Q15.342,47.313 15.4,47.207 Q15.427,47.159 15.571,46.931 Q15.715,46.702 15.888,46.421 Q16.061,46.14 16.209,45.882 Q16.357,45.624 16.41,45.528 z M17.419,45.655 Q17.401,45.62 17.467,45.499 Q17.533,45.378 17.62,45.219 Q17.707,45.06 17.812,44.904 Q17.916,44.748 17.969,44.652 Q18.064,44.478 18.009,44.259 Q18.012,44.161 17.956,44.08 Q17.994,44.126 18.02,44.216 Q18.051,44.32 18.07,44.468 Q18.062,44.527 17.993,44.677 Q17.923,44.827 17.85,45.007 Q17.776,45.186 17.697,45.331 Q17.618,45.475 17.602,45.504 Q17.554,45.591 17.631,45.633 Q17.66,45.649 18.046,45.861 Q18.432,46.072 18.933,46.348 Q19.435,46.623 19.937,46.885 Q20.439,47.148 20.68,47.281 Q20.922,47.388 21.037,47.476 Q21.151,47.564 21.174,47.614 Q21.23,47.695 21.198,47.753 Q21.19,47.723 21.142,47.672 Q21.071,47.596 20.975,47.543 Q20.965,47.538 20.792,47.442 Q20.618,47.347 20.36,47.212 Q20.102,47.076 19.783,46.914 Q19.464,46.752 19.127,46.567 Q18.374,46.178 17.419,45.655 z M23.545,42.378 Q23.468,42.336 23.46,42.144 L23.459,41.917 Q23.421,41.896 23.38,41.924 Q23.34,41.952 23.299,41.992 Q23.258,42.033 23.215,42.053 Q23.173,42.074 23.105,42.037 Q22.971,41.938 22.859,41.845 Q22.747,41.752 22.8,41.656 Q22.81,41.636 22.902,41.549 Q22.994,41.461 23.112,41.407 Q23.23,41.352 23.392,41.341 Q23.555,41.33 23.724,41.435 Q24.059,41.669 24.028,41.897 Q23.998,42.125 23.904,42.249 Q23.718,42.474 23.545,42.378 z M22.784,41.936 Q22.82,42.031 23.038,42.113 Q23.256,42.195 23.307,42.286 Q23.36,42.327 23.416,42.408 Q23.43,42.428 23.449,42.439 L23.198,42.301 Q23.16,42.28 23.101,42.273 Q23.042,42.266 22.955,42.218 Q22.888,42.181 22.824,42.046 Q22.786,42 22.784,41.936 z M28.618,29.403 Q28.445,29.308 28.149,29.171 Q27.854,29.034 27.554,28.907 Q27.254,28.78 27.031,28.683 Q26.808,28.586 26.798,28.605 Q26.68,28.728 26.766,28.914 Q26.803,28.984 26.905,29.153 Q27.006,29.322 26.998,29.405 Q26.995,29.504 26.898,29.588 Q26.861,29.656 26.815,29.694 Q26.758,29.524 26.683,29.408 Q26.643,29.298 26.583,29.19 Q26.523,29.082 26.492,29.002 Q26.449,28.966 26.367,28.783 Q26.286,28.6 26.194,28.412 Q26.103,28.224 26.053,28.052 Q26.003,27.881 26.029,27.832 Q26.072,27.755 26.089,27.702 Q26.105,27.648 26.074,27.568 Q26.022,27.502 25.965,27.47 L25.907,27.439 L25.756,27.507 Q25.832,27.46 25.932,27.415 Q26.107,27.348 26.226,27.338 Q26.377,27.358 26.26,27.4 Q26.143,27.443 26.126,27.496 Q26.115,27.516 26.124,27.545 Q26.133,27.575 26.121,27.619 Q26.125,27.659 26.143,27.694 Q26.192,27.696 26.285,27.709 Q26.334,27.711 26.419,27.739 Q26.505,27.767 26.572,27.804 Q26.64,27.841 26.839,27.957 Q27.039,28.073 27.266,28.209 Q27.492,28.346 27.684,28.464 Q27.877,28.582 27.925,28.609 Q27.983,28.64 28.291,28.822 Q28.599,29.003 28.961,29.202 Q29.322,29.4 29.64,29.575 Q29.959,29.749 30.017,29.781 Q30.065,29.808 30.223,29.851 Q30.381,29.894 30.537,29.954 Q30.692,30.014 30.784,30.108 Q30.877,30.203 30.813,30.319 Q30.691,30.565 30.532,30.534 Q30.373,30.504 30.252,30.45 Q30.194,30.418 29.987,30.292 Q29.78,30.166 29.536,29.994 Q29.291,29.823 29.037,29.658 Q28.782,29.493 28.618,29.403 z M26.427,27.36 Q26.441,27.356 26.47,27.372 Q26.538,27.409 26.602,27.406 Q26.612,27.411 26.918,27.573 Q27.225,27.735 27.687,27.989 Q28.15,28.243 28.657,28.521 Q29.163,28.799 29.604,29.047 Q30.045,29.295 30.354,29.464 Q30.662,29.634 30.662,29.634 z M32.407,25.058 Q32.557,25.128 32.716,25.089 Q32.836,25.054 33.001,24.97 Q33.167,24.885 33.333,24.65 Q33.481,24.405 33.481,24.141 Q33.481,23.878 33.419,23.637 Q33.357,23.396 33.254,23.195 Q33.15,22.994 33.071,22.887 Q33.002,22.762 32.812,22.627 Q32.623,22.491 32.377,22.356 Q32.131,22.222 31.851,22.093 Q31.57,21.964 31.327,21.881 Q30.836,21.724 30.523,21.86 Q30.21,21.996 29.991,22.189 Q29.894,22.274 29.788,22.491 Q29.681,22.709 29.644,22.971 Q29.607,23.233 29.609,23.491 Q29.612,23.75 29.68,23.9 Q29.763,24.046 29.905,24.118 Q30.048,24.19 30.19,24.193 Q30.333,24.196 30.462,24.166 Q30.591,24.137 30.642,24.09 Q30.781,24.065 30.767,24.057 Q30.752,24.049 30.812,24.032 Q30.872,24.015 30.906,24.021 Q30.94,24.027 31.059,23.992 Q31.119,23.975 31.228,23.821 Q31.338,23.668 31.465,23.493 Q31.592,23.318 31.709,23.163 Q31.826,23.007 31.857,22.95 Q31.916,22.843 31.89,22.685 Q31.864,22.526 31.881,22.586 Q31.894,22.631 31.924,22.748 Q31.954,22.865 31.995,22.95 Q32.086,23.012 32.086,22.968 Q32.085,22.924 32.172,22.971 Q32.201,22.987 32.253,22.96 Q32.306,22.932 32.336,22.98 Q32.366,23.028 32.299,23.173 Q32.232,23.318 32.071,23.681 Q31.885,24.043 31.628,24.248 Q31.372,24.452 31.131,24.559 Q30.891,24.665 30.656,24.693 Q30.421,24.721 30.268,24.725 Q30.095,24.743 29.885,24.634 Q29.676,24.525 29.47,24.362 Q29.265,24.199 29.108,23.982 Q28.951,23.764 28.887,23.516 Q28.842,23.278 28.879,23.016 Q28.916,22.754 28.994,22.52 Q29.073,22.262 29.224,22.032 Q29.214,22.051 29.205,22.021 Q29.205,22.021 29.198,21.942 Q29.21,21.898 29.429,21.762 Q29.648,21.625 30.164,21.393 Q30.429,21.3 30.816,21.337 Q31.204,21.374 31.643,21.533 Q32.083,21.693 32.525,21.961 Q32.968,22.229 33.343,22.598 Q33.713,22.951 33.871,23.27 Q34.029,23.589 34.052,23.878 Q34.076,24.166 33.984,24.436 Q33.892,24.706 33.779,24.982 Q33.685,25.244 33.436,25.434 Q33.188,25.624 32.914,25.712 Q32.64,25.8 32.391,25.808 Q32.142,25.816 32.055,25.768 Q31.949,25.71 31.891,25.609 Q31.834,25.509 31.822,25.415 Q31.787,25.32 31.787,25.182 L31.739,25.155 Q31.7,25.134 31.687,25.089 Q31.67,25.03 31.779,25.071 Q31.888,25.112 31.927,25.133 Q31.975,25.159 31.974,25.127 Q31.972,25.095 32.129,24.993 Q32.299,24.911 32.294,24.977 Q32.29,25.043 32.407,25.058 z M31.46,25.115 Q31.517,25.034 31.598,24.978 Q31.68,24.897 31.744,24.838 Q31.807,24.779 31.863,24.747 Q31.923,24.705 31.96,24.649 Q31.997,24.594 32.047,24.571 Q32.083,24.529 32.114,24.471 Q32.103,24.515 32.1,24.588 Q32.108,24.643 32.113,24.69 Q32.119,24.737 32.21,24.799 Q32.282,24.851 32.401,24.841 Q32.519,24.831 32.648,24.801 Q32.778,24.747 32.938,24.684 Q32.922,24.713 32.878,24.726 Q32.847,24.76 32.806,24.787 Q32.766,24.815 32.71,24.848 Q32.594,24.922 32.339,24.908 Q32.084,24.893 31.946,24.893 Q31.876,24.905 31.792,24.933 Q31.707,24.962 31.641,25.014 Q31.556,25.055 31.46,25.115 z M30.154,23.721 Q30.32,23.762 30.499,23.722 Q30.677,23.682 30.833,23.605 Q31.019,23.494 31.187,23.347 Q30.967,23.59 30.764,23.73 Q30.566,23.885 30.354,23.963 Q30.142,24.041 29.969,23.921 Q29.805,23.831 29.785,23.651 Q29.765,23.47 29.786,23.294 Q29.825,23.064 29.931,22.871 Q29.87,23.051 29.863,23.223 Q29.877,23.381 29.926,23.521 Q29.974,23.66 30.154,23.721 z M34.18,22.969 Q34.25,23.07 34.307,23.333 Q34.363,23.596 34.389,23.881 Q34.415,24.165 34.368,24.434 Q34.321,24.703 34.223,24.812 Q34.32,24.476 34.343,24.113 Q34.345,23.812 34.282,23.47 Q34.219,23.128 33.989,22.814 Q33.754,22.534 33.443,22.232 Q33.132,21.93 32.796,21.696 Q32.461,21.461 32.083,21.304 Q31.705,21.147 31.323,21.088 Q30.95,21.059 30.749,21.037 Q30.548,21.014 30.43,21.012 Q30.312,21.01 30.224,21.044 Q30.137,21.077 30.002,21.141 Q29.842,21.204 29.715,21.285 Q29.589,21.366 29.464,21.435 Q29.333,21.514 29.166,21.611 Q29.382,21.378 29.699,21.188 Q29.975,21.051 30.375,20.963 Q30.775,20.875 31.366,20.986 Q31.929,21.082 32.398,21.358 Q32.868,21.634 33.242,21.959 Q33.616,22.283 33.861,22.568 Q34.106,22.853 34.18,22.969 z M32.998,17.189 Q33,17.14 32.997,17.076 Q33.024,17.003 33.141,16.928 z M32.944,17.699 Q32.97,17.651 32.996,17.684 Q33.022,17.717 33.066,17.785 Q33.11,17.853 33.157,17.916 Q33.204,17.979 33.203,18.004 Q33.232,18.02 33.293,17.909 Q33.354,17.798 33.426,17.631 Q33.499,17.464 33.598,17.273 Q33.696,17.083 33.78,16.953 Q33.869,16.813 34.055,16.69 Q34.242,16.567 34.457,16.496 Q34.693,16.362 34.957,16.294 Q34.812,16.352 34.661,16.42 Q34.516,16.479 34.367,16.591 Q34.217,16.704 34.034,16.854 Q33.857,16.995 33.741,17.195 Q33.625,17.395 33.568,17.59 Q33.497,17.789 33.428,18.027 L33.377,17.961 L33.422,18.199 Q33.423,18.313 33.452,18.385 Q33.481,18.458 33.465,18.487 Q33.439,18.535 33.292,18.391 Q33.259,18.336 33.191,18.255 Q33.123,18.173 33.06,18.07 Q32.998,17.967 32.955,17.862 Q32.912,17.757 32.944,17.699 z M34.736,18.845 Q34.684,18.528 34.717,18.458 Q34.749,18.388 34.762,18.295 Q34.778,18.266 34.801,18.373 Q34.824,18.479 34.87,18.624 Q34.916,18.768 34.961,18.893 Q35.005,19.018 35.044,19.039 Q35.12,19.106 35.15,19.097 Q35.18,19.089 35.241,19.047 Q35.284,19.058 35.379,19.022 Q35.474,18.987 35.589,18.937 Q35.699,18.897 35.864,18.849 Q35.657,18.974 35.495,19.086 Q35.325,19.168 35.201,19.245 Q35.078,19.321 35.04,19.275 Q34.992,19.249 34.945,19.173 Q34.931,19.153 34.902,19.137 Q34.867,19.156 34.829,19.134 Q34.809,19.124 34.78,19.064 Q34.75,19.003 34.736,18.845 z M37.153,16.934 Q37.395,17.293 37.476,17.613 Q37.557,17.934 37.532,18.209 Q37.509,18.547 37.425,18.815 Q37.478,18.467 37.456,18.142 Q37.443,17.846 37.385,17.551 Q37.327,17.256 37.149,17.032 Q36.761,16.619 36.521,16.462 Q36.281,16.305 36.084,16.297 Q35.912,16.291 35.716,16.259 Q35.628,16.26 35.524,16.266 Q35.807,16.208 36.095,16.254 Q36.34,16.287 36.63,16.446 Q36.919,16.605 37.153,16.934 z M32.248,15.811 Q32.347,15.653 32.505,15.526 Q32.656,15.433 32.855,15.323 Q33.053,15.212 33.39,15.171 Q33.429,15.167 33.332,15.208 Q33.234,15.248 33.09,15.295 Q32.945,15.341 32.782,15.421 Q32.619,15.501 32.538,15.557 Q32.447,15.632 32.386,15.674 Q32.325,15.716 32.3,15.74 Q32.264,15.782 32.248,15.811 z M34.315,15.703 Q34.31,15.964 34.049,16.097 Q33.892,16.199 33.589,16.215 Q33.285,16.23 33.065,16.448 Q32.801,16.679 32.776,17.055 Q32.752,17.431 32.748,17.805 Q32.765,18.002 32.884,18.174 Q33.003,18.346 33.135,18.506 Q33.266,18.666 33.386,18.757 Q33.505,18.848 33.49,18.877 Q33.508,18.912 33.41,18.896 Q33.312,18.88 33.381,19.005 Q33.451,19.106 33.637,19.133 Q33.823,19.16 33.901,19.065 Q33.922,19.026 33.912,18.907 Q33.902,18.789 33.86,18.659 Q33.818,18.53 33.78,18.415 Q33.743,18.3 33.734,18.27 Q33.717,18.211 33.76,18.178 Q33.803,18.145 33.902,18.011 Q33.976,17.876 34.072,17.678 Q34.168,17.48 34.167,17.391 Q34.191,17.279 34.32,17.124 Q34.449,16.969 34.981,16.684 Q35.252,16.556 35.525,16.562 Q35.798,16.567 36.07,16.666 Q36.342,16.765 36.567,16.939 Q36.791,17.112 36.957,17.291 Q37.128,17.46 37.217,17.766 Q37.306,18.072 37.268,18.415 Q37.231,18.758 37.035,19.115 Q36.839,19.472 36.425,19.747 Q36.006,20.031 35.472,20.02 Q34.938,20.01 34.409,19.82 Q33.879,19.63 33.439,19.357 Q32.999,19.084 32.752,18.848 Q32.278,18.363 32.096,17.666 Q31.913,16.97 32.241,16.372 Q32.41,16.064 32.662,15.869 Q32.913,15.674 33.158,15.558 Q33.404,15.442 33.591,15.388 Q33.777,15.333 33.827,15.335 Q33.926,15.314 34.126,15.43 Q34.326,15.546 34.315,15.703 z M34.507,18.92 Q34.571,19.056 34.631,19.151 Q34.691,19.247 34.729,19.293 Q34.765,19.388 34.802,19.434 Q34.958,19.494 35.153,19.526 Q35.349,19.558 35.626,19.396 Q35.907,19.249 36.118,19.152 Q36.328,19.054 36.533,18.727 Q36.657,18.569 36.68,18.343 Q36.704,18.118 36.646,17.892 Q36.588,17.666 36.473,17.464 Q36.357,17.263 36.14,17.156 Q35.742,16.988 35.385,17.125 Q35.028,17.261 34.757,17.665 Q34.254,18.443 34.507,18.92 z M38.703,13.581 Q38.853,13.651 39.012,13.613 Q39.132,13.578 39.297,13.493 Q39.463,13.409 39.629,13.174 Q39.777,12.928 39.777,12.665 Q39.777,12.401 39.715,12.16 Q39.653,11.919 39.55,11.718 Q39.446,11.517 39.367,11.411 Q39.298,11.285 39.108,11.15 Q38.919,11.015 38.673,10.88 Q38.427,10.745 38.147,10.616 Q37.866,10.487 37.623,10.404 Q37.132,10.248 36.819,10.383 Q36.506,10.519 36.287,10.713 Q36.19,10.798 36.084,11.015 Q35.977,11.233 35.94,11.494 Q35.903,11.756 35.905,12.015 Q35.908,12.274 35.976,12.424 Q36.059,12.57 36.201,12.642 Q36.344,12.714 36.486,12.717 Q36.629,12.72 36.758,12.69 Q36.887,12.66 36.938,12.613 Q37.077,12.589 37.063,12.581 Q37.048,12.573 37.108,12.556 Q37.168,12.538 37.202,12.544 Q37.236,12.551 37.356,12.516 Q37.415,12.498 37.524,12.345 Q37.634,12.192 37.761,12.017 Q37.888,11.842 38.005,11.686 Q38.122,11.531 38.153,11.473 Q38.212,11.367 38.186,11.208 Q38.16,11.05 38.177,11.11 Q38.19,11.155 38.22,11.271 Q38.25,11.388 38.291,11.473 Q38.382,11.536 38.382,11.492 Q38.381,11.447 38.468,11.495 Q38.497,11.511 38.549,11.483 Q38.602,11.456 38.632,11.504 Q38.662,11.552 38.595,11.697 Q38.528,11.842 38.367,12.205 Q38.181,12.567 37.924,12.771 Q37.668,12.976 37.427,13.082 Q37.187,13.189 36.952,13.217 Q36.717,13.245 36.564,13.249 Q36.392,13.267 36.182,13.158 Q35.972,13.049 35.766,12.886 Q35.561,12.723 35.404,12.505 Q35.247,12.288 35.183,12.039 Q35.138,11.801 35.175,11.539 Q35.212,11.277 35.29,11.044 Q35.369,10.786 35.52,10.555 Q35.51,10.575 35.501,10.545 Q35.501,10.545 35.494,10.466 Q35.506,10.422 35.725,10.285 Q35.944,10.148 36.46,9.917 Q36.725,9.824 37.112,9.861 Q37.5,9.897 37.939,10.057 Q38.379,10.216 38.821,10.484 Q39.264,10.752 39.639,11.121 Q40.009,11.475 40.167,11.794 Q40.325,12.112 40.348,12.401 Q40.372,12.69 40.28,12.96 Q40.189,13.229 40.075,13.506 Q39.981,13.768 39.732,13.958 Q39.484,14.148 39.21,14.236 Q38.936,14.324 38.687,14.332 Q38.438,14.339 38.351,14.292 Q38.245,14.233 38.187,14.133 Q38.13,14.032 38.118,13.938 Q38.083,13.843 38.083,13.705 L38.035,13.679 Q37.996,13.658 37.983,13.613 Q37.966,13.553 38.075,13.594 Q38.184,13.635 38.223,13.657 Q38.271,13.683 38.27,13.651 Q38.268,13.619 38.425,13.517 Q38.596,13.435 38.591,13.501 Q38.586,13.567 38.703,13.581 z M37.756,13.639 Q37.813,13.557 37.894,13.501 Q37.976,13.421 38.04,13.362 Q38.103,13.303 38.159,13.27 Q38.219,13.228 38.256,13.173 Q38.293,13.118 38.343,13.095 Q38.379,13.052 38.41,12.994 Q38.399,13.038 38.396,13.112 Q38.404,13.166 38.409,13.213 Q38.415,13.26 38.506,13.323 Q38.578,13.375 38.697,13.365 Q38.815,13.354 38.944,13.325 Q39.074,13.271 39.234,13.208 Q39.218,13.237 39.174,13.25 Q39.143,13.283 39.102,13.311 Q39.062,13.339 39.007,13.371 Q38.89,13.446 38.635,13.431 Q38.38,13.416 38.242,13.416 Q38.172,13.428 38.088,13.457 Q38.003,13.486 37.937,13.537 Q37.852,13.578 37.756,13.639 z M36.45,12.245 Q36.616,12.286 36.795,12.246 Q36.973,12.206 37.129,12.128 Q37.315,12.017 37.483,11.871 Q37.263,12.114 37.06,12.254 Q36.862,12.408 36.65,12.486 Q36.438,12.565 36.265,12.445 Q36.101,12.355 36.081,12.174 Q36.061,11.994 36.082,11.817 Q36.121,11.588 36.227,11.395 Q36.166,11.574 36.159,11.747 Q36.173,11.905 36.222,12.044 Q36.27,12.184 36.45,12.245 z M40.476,11.493 Q40.546,11.594 40.603,11.857 Q40.659,12.12 40.685,12.404 Q40.711,12.688 40.664,12.957 Q40.617,13.226 40.519,13.336 Q40.616,13 40.639,12.636 Q40.641,12.336 40.578,11.994 Q40.515,11.652 40.285,11.338 Q40.05,11.058 39.739,10.756 Q39.428,10.453 39.092,10.219 Q38.757,9.985 38.379,9.828 Q38.001,9.67 37.619,9.612 Q37.246,9.583 37.045,9.56 Q36.844,9.538 36.726,9.536 Q36.608,9.534 36.52,9.567 Q36.433,9.601 36.298,9.665 Q36.138,9.727 36.011,9.809 Q35.885,9.89 35.76,9.959 Q35.629,10.038 35.462,10.135 Q35.678,9.902 35.995,9.712 Q36.271,9.575 36.671,9.487 Q37.071,9.399 37.662,9.51 Q38.225,9.605 38.694,9.881 Q39.164,10.158 39.538,10.482 Q39.912,10.807 40.157,11.092 Q40.402,11.377 40.476,11.493 z" fill="#000000"/>
  </g>
</svg>
